<?xml version="1.0" encoding="UTF-8"?>
<svg version="1.1" xmlns="http://www.w3.org/2000/svg" width="512" height="512">
<path d="M0 0 C9.52540024 9.14429429 14.51959019 21.71551154 20 33.5 C20.79295825 35.19196562 21.58641926 36.8836957 22.38037109 38.57519531 C24.32440719 42.72278072 26.25871633 46.87480419 28.18859863 51.0289917 C29.17416492 53.14934775 30.16219375 55.26853189 31.15136719 57.38720703 C32.73279283 60.77579973 34.30589542 64.16818106 35.875 67.5625 C36.3297168 68.5424292 36.78443359 69.5223584 37.25292969 70.53198242 C37.65672852 71.41345947 38.06052734 72.29493652 38.4765625 73.203125 C38.82283691 73.95625977 39.16911133 74.70939453 39.52587891 75.48535156 C40.25 77.3125 40.25 77.3125 40.25 79.3125 C46.89028852 76.87225263 53.38008619 74.28317632 59.79223633 71.30102539 C86.26588096 59.04497204 115.6674375 57.65970159 143.1875 67.625 C174.48063538 80.79052627 192.63318992 103.0163301 206.375 133.3125 C207.2154667 135.14625673 208.05594616 136.98000773 208.8971405 138.81343079 C209.47479082 140.07338155 210.05162058 141.33370882 210.62763977 142.59440613 C212.65000782 147.01881292 214.7013601 151.42886653 216.76953125 155.83203125 C235.24344693 195.1879917 235.24344693 195.1879917 236.25 214.3125 C236.311875 215.4571875 236.311875 215.4571875 236.375 216.625 C236.91501661 237.1456311 230.78857055 259.13269248 217.5625 275.125 C213.66324514 279.16445278 210.48813534 280.36098111 204.9375 280.75 C199.7056292 280.60176366 196.07349195 278.85181349 192.25 275.3125 C189.19603184 271.52859989 187.90484213 267.67035786 187.9375 262.8125 C188.77788581 256.94787212 191.88681188 252.28993364 194.86987305 247.28735352 C198.10515651 241.80471395 200.11602902 236.60762859 201.25 230.3125 C201.476875 229.095625 201.70375 227.87875 201.9375 226.625 C203.44748529 210.61915589 198.60454538 197.73887521 191.80761719 183.56933594 C189.97894734 179.74575353 188.17978948 175.90886326 186.3828125 172.0703125 C183.34492737 165.58668237 180.29927146 159.10680895 177.23376465 152.63618469 C175.51058645 148.99633131 173.80238584 145.35040654 172.1159668 141.69335938 C171.58665306 140.55165535 171.58665306 140.55165535 171.04664612 139.3868866 C170.37624717 137.93980918 169.70965124 136.49096096 169.04771423 135.03999329 C166.17430718 128.85574018 162.63976739 123.55508519 158.25 118.3125 C157.73308594 117.6834375 157.21617187 117.054375 156.68359375 116.40625 C145.17000483 103.70956046 127.04122987 95.97409062 110.15625 95.05859375 C91.80027249 94.40139218 77.16596932 100.80573533 60.88574219 108.41796875 C51.01843984 112.93759297 39.79389613 114.04759611 29.125 111.59375 C15.12697208 106.30181262 10.21551029 93.65144501 4.1875 80.9375 C3.63312256 79.77790771 3.07874512 78.61831543 2.50756836 77.42358398 C-2.16259568 67.6382777 -6.73200462 57.80541643 -11.26000977 47.95361328 C-13.77283829 42.4993805 -16.31945071 37.06300699 -18.94921875 31.6640625 C-19.41803467 30.69936035 -19.88685059 29.7346582 -20.36987305 28.74072266 C-22.66458403 24.70336278 -25.26241393 23.02469233 -29.66015625 21.765625 C-34.75763882 20.78345109 -38.16215184 21.75389237 -42.75 24.3125 C-46.08460761 27.10636043 -48.29109382 29.93114094 -49.12548828 34.26098633 C-49.36590704 41.39200857 -46.73584578 46.70480485 -43.625 53 C-42.51675082 55.31892619 -41.4086852 57.63794011 -40.30078125 59.95703125 C-39.71219029 61.17420327 -39.12315556 62.39116078 -38.53369141 63.60791016 C-35.85849961 69.14440834 -33.27908246 74.72557781 -30.68908691 80.30227661 C-29.21283189 83.47717058 -27.72885222 86.64845217 -26.24609375 89.8203125 C-22.94130167 96.89436526 -19.65746359 103.97806081 -16.375 111.0625 C-11.51879321 121.53971759 -6.61215023 131.99233698 -1.6875 142.4375 C3.24483647 152.89999177 8.15314113 163.37258572 13 173.875 C13.47703369 174.90834473 13.95406738 175.94168945 14.44555664 177.00634766 C15.31868184 178.90277244 16.18854355 180.8007047 17.05444336 182.70043945 C17.84052515 184.41787647 18.63792451 186.13018635 19.44750977 187.83666992 C22.66637312 194.74095018 23.65044996 200.3322738 21.0625 207.6875 C18.01667958 212.0986882 14.41268334 214.83744762 9.25 216.3125 C3.26153157 216.78233003 -0.81004119 215.43307909 -6.1875 213.125 C-7.01862305 212.78202881 -7.84974609 212.43905762 -8.70605469 212.08569336 C-11.72543123 210.83908533 -14.7374954 209.57562317 -17.75 208.3125 C-22.61283515 206.28171859 -27.48139948 204.26526154 -32.35525513 202.26107788 C-34.4675054 201.38842479 -36.5744415 200.50375463 -38.68139648 199.6184082 C-40.01132713 199.06926963 -41.34147756 198.52066295 -42.671875 197.97265625 C-43.84331055 197.48418213 -45.01474609 196.99570801 -46.22167969 196.49243164 C-53.24836305 194.14258659 -58.64588627 193.91758748 -65.4765625 196.93359375 C-69.92457053 199.63144055 -72.11302 203.40155999 -73.75 208.3125 C-74.32742347 214.14225619 -73.80070543 218.18731487 -70.75 223.3125 C-70.42 224.3025 -70.09 225.2925 -69.75 226.3125 C-66.35541451 228.43584108 -62.4234708 229.65709494 -58.69140625 231.0859375 C-57.61743843 231.49948486 -57.61743843 231.49948486 -56.52177429 231.92138672 C-54.95089863 232.52564742 -53.37961632 233.12885174 -51.8079834 233.73114014 C-49.26730852 234.70481902 -46.72787294 235.68168358 -44.18847656 236.65869141 C-33.82638484 240.63839939 -23.44269511 244.55724318 -13.04296875 248.4375 C-10.69128265 249.31710717 -8.33963877 250.19682725 -5.98803711 251.07666016 C-1.42579711 252.78344586 3.14029936 254.47932747 7.70874023 256.16943359 C43.94029919 269.66313127 43.94029919 269.66313127 54.25 279.3125 C54.95640625 279.90675781 55.6628125 280.50101562 56.390625 281.11328125 C68.06004028 291.61983522 79.90476904 311.01824575 82.87890625 326.609375 C83.1771284 333.72822641 80.88325605 337.44689783 76.125 342.625 C71.9370833 345.08312502 68.06630132 345.48612842 63.25 345.3125 C57.03019839 343.65388624 53.92509705 340.33778245 50.25 335.3125 C48.7436062 332.61833473 47.5234961 329.83698928 46.3125 327 C40.42871126 313.95027506 33.72276657 304.06392368 20.4140625 297.9609375 C19.75439484 297.65645187 19.09472717 297.35196625 18.41506958 297.03825378 C12.11918748 294.17758051 5.68718433 291.72076636 -0.81396484 289.37088013 C-3.74386499 288.31056134 -6.66711931 287.23240028 -9.59100342 286.15562439 C-11.22525156 285.55380612 -12.85973906 284.9526375 -14.4944458 284.35206604 C-25.40599525 280.3421619 -36.30100494 276.28827173 -47.1864624 272.20809937 C-49.54484313 271.3258424 -51.90440834 270.44674463 -54.26519775 269.57095337 C-57.61724849 268.32718065 -60.96520672 267.07291698 -64.3125 265.81640625 C-65.79978104 265.26850433 -65.79978104 265.26850433 -67.31710815 264.70953369 C-82.78545749 258.86380002 -94.92992125 251.30267694 -102.75 236.3125 C-104.29295204 232.70133566 -105.6167465 229.07173339 -106.75 225.3125 C-106.94207031 224.71179688 -107.13414063 224.11109375 -107.33203125 223.4921875 C-109.99810858 209.58871881 -107.10942867 195.46279299 -99.43359375 183.65234375 C-91.08840525 172.05427435 -80.84012055 164.50927211 -66.75 161.3125 C-55.02898401 159.5072246 -44.8866709 160.56268316 -33.87890625 164.8984375 C-32.72592041 165.35009277 -31.57293457 165.80174805 -30.38500977 166.26708984 C-29.51545654 166.6120752 -28.64590332 166.95706055 -27.75 167.3125 C-28.07572998 166.6412207 -28.40145996 165.96994141 -28.73706055 165.27832031 C-36.10708019 150.07291435 -43.34550726 134.81588146 -50.43359375 119.4765625 C-52.68234588 114.61038846 -54.94532009 109.7512697 -57.22265625 104.8984375 C-62.92607403 92.74214317 -68.59989988 80.57214451 -74.13769531 68.33932495 C-74.97560285 66.49130824 -75.81974102 64.64612052 -76.6640625 62.80102539 C-83.21920422 48.24224697 -85.56950413 33.71017589 -80.0703125 18.30859375 C-73.63750592 3.71107114 -63.30822859 -4.8219637 -48.75 -10.6875 C-31.31416759 -15.69140599 -13.8976161 -11.43682405 0 0 Z " fill="#000000" transform="translate(233.75,140.6875)"/>
<path d="M0 0 C6.84438639 3.92779622 9.77436003 12.15396275 12.984375 19.05078125 C13.35226135 19.83140427 13.72014771 20.61202728 14.09918213 21.41630554 C14.86779499 23.04962322 15.63402782 24.68406289 16.39794922 26.31958008 C17.568616 28.82559235 18.74655877 31.32808202 19.92578125 33.83007812 C20.67490025 35.42428137 21.42361286 37.01867565 22.171875 38.61328125 C22.52288269 39.36015701 22.87389038 40.10703278 23.23553467 40.87654114 C26.71965466 48.34375741 28.44271284 54.86676351 25.625 62.875 C22.6302485 67.21222631 18.96836692 70.23967697 13.8125 71.5 C7.29806274 71.59837237 2.99239212 70.6829546 -2.1875 66.5 C-4.03125 63.6640625 -4.03125 63.6640625 -5.6875 60.125 C-6.00009766 59.46161621 -6.31269531 58.79823242 -6.63476562 58.11474609 C-7.3747613 56.54036753 -8.10787984 54.96274715 -8.8359375 53.3828125 C-10.14140558 50.598317 -11.48928727 47.83711857 -12.85046387 45.07949829 C-14.15205555 42.43514988 -15.43533849 39.78213093 -16.71606445 37.12762451 C-17.35825852 35.80373475 -18.00644375 34.48273272 -18.66088867 33.16485596 C-22.3450839 25.72177313 -25.62672077 18.99306401 -24.1875 10.5 C-22.39396165 5.21902596 -19.57750798 2.70104749 -15.1875 -0.5 C-9.87825405 -2.26974865 -5.1133605 -2.19835764 0 0 Z " fill="#000000" transform="translate(148.1875,45.5)"/>
<path d="M0 0 C1.25802177 0.45332199 1.25802177 0.45332199 2.54145813 0.915802 C4.3002438 1.55167941 6.0573289 2.19227875 7.81274414 2.83740234 C10.48796392 3.82019592 13.16816448 4.78824278 15.84960938 5.75390625 C17.56671543 6.37675244 19.283523 7.0004223 21 7.625 C21.79387619 7.912612 22.58775238 8.200224 23.40568542 8.49655151 C31.37513753 11.4330787 37.81790994 13.97956988 41.80078125 21.9453125 C42.39598869 27.54876543 42.92232299 33.15881105 39.67578125 38.0078125 C36.56769226 41.5574406 33.46520504 43.67134789 28.65509033 44.16593933 C21.96562104 44.31444091 16.6415194 42.95639513 10.41015625 40.62109375 C9.46190979 40.2778154 8.51366333 39.93453705 7.53668213 39.58085632 C5.54732472 38.85634979 3.56082471 38.12395285 1.57714844 37.3840332 C-1.44760921 36.25841147 -4.48231168 35.16375108 -7.51953125 34.07226562 C-9.46030087 33.36118863 -11.40042879 32.64835723 -13.33984375 31.93359375 C-14.23995178 31.60941971 -15.14005981 31.28524567 -16.06744385 30.95124817 C-22.61886478 28.47989961 -27.39320388 25.91649825 -31.13671875 19.7578125 C-32.51727316 14.80405844 -32.71813269 10.88756546 -31.19921875 5.9453125 C-28.62375273 1.70461366 -25.68083856 -1.24945934 -21.32421875 -3.6171875 C-13.81420431 -4.66858952 -6.98816727 -2.58715796 0 0 Z " fill="#000000" transform="translate(74.19921875,117.0546875)"/>
<path d="M0 0 C4.33722631 2.9947515 7.36467697 6.65663308 8.625 11.8125 C8.94861712 17.00835268 8.42273088 21.47390229 5.109375 25.62109375 C-0.60203995 31.81337792 -8.63649767 34.69087479 -16.1875 38.0625 C-17.70978662 38.76127579 -19.23127853 39.46178554 -20.75195312 40.1640625 C-46.31522423 51.91011469 -46.31522423 51.91011469 -55.625 48.6875 C-59.8046989 45.8377053 -62.74364324 42.70657029 -64.375 37.8125 C-64.9104461 31.49423599 -64.18112983 26.98804855 -60.375 21.8125 C-55.40322124 17.93907549 -49.51136055 15.2876151 -43.82421875 12.640625 C-43.04359573 12.27273865 -42.26297272 11.90485229 -41.45869446 11.52581787 C-39.82537678 10.75720501 -38.19093711 9.99097218 -36.55541992 9.22705078 C-34.04940765 8.056384 -31.54691798 6.87844123 -29.04492188 5.69921875 C-27.45071863 4.95009975 -25.85632435 4.20138714 -24.26171875 3.453125 C-23.51484299 3.10211731 -22.76796722 2.75110962 -21.99845886 2.38946533 C-14.53124259 -1.09465466 -8.00823649 -2.81771284 0 0 Z " fill="#000000" transform="translate(318.375,99.1875)"/>
<path d="M0 0 C4.52966583 2.47551505 7.16586374 5.37259122 8.8125 10.3125 C9.55112347 17.66835062 8.13211151 23.61948759 5.5234375 30.44921875 C5.18253082 31.37289749 4.84162415 32.29657623 4.49038696 33.24824524 C3.77028742 35.18646485 3.04208359 37.12169117 2.30615234 39.05395508 C1.18957632 41.99453189 0.10695317 44.94607061 -0.97265625 47.90039062 C-1.68029433 49.79241489 -2.38986555 51.68371751 -3.1015625 53.57421875 C-3.42057526 54.44729172 -3.73958801 55.32036469 -4.06826782 56.21989441 C-6.42367123 62.31744749 -9.36514959 68.1092913 -15.21304321 71.48002625 C-19.31858106 73.21100994 -23.83562294 72.82411399 -28.1875 72.3125 C-33.01583008 69.94222887 -36.89909336 66.5335166 -38.9375 61.4375 C-39.79115131 54.18146389 -38.35215818 49.0030135 -35.828125 42.21484375 C-35.48247498 41.26235245 -35.13682495 40.30986115 -34.78070068 39.32850647 C-34.04964305 37.32208564 -33.31305783 35.31767123 -32.57128906 33.31518555 C-31.44174742 30.26148286 -30.33292518 27.20083791 -29.2265625 24.13867188 C-28.51163902 22.18444822 -27.79553234 20.23065693 -27.078125 18.27734375 C-26.74878967 17.36782455 -26.41945435 16.45830536 -26.08013916 15.52122498 C-21.32429755 2.77280678 -21.32429755 2.77280678 -15.375 -0.0625 C-9.88174684 -2.47912523 -5.46753479 -2.4760555 0 0 Z " fill="#000000" transform="translate(253.1875,27.6875)"/>
<path d="M0 0 C3.78368523 3.25572915 6.31531923 5.7983809 7.0703125 10.8984375 C7.31861025 16.94034938 6.57679352 21.46769772 2.6875 26.3125 C0.30772284 27.98429345 -1.72786419 29.20141046 -4.3125 30.4375 C-5.02801025 30.79585937 -5.74352051 31.15421875 -6.48071289 31.5234375 C-9.08017566 32.81043299 -11.69627631 34.05993478 -14.3125 35.3125 C-16.03395304 36.1569112 -17.75538906 37.00135746 -19.47640991 37.84664917 C-21.94324858 39.0523953 -24.41820038 40.24069978 -26.89575195 41.42425537 C-28.71343306 42.29498326 -30.52572946 43.17692356 -32.33789062 44.05908203 C-47.06803702 50.9703142 -47.06803702 50.9703142 -54.65576172 48.57177734 C-59.66675471 46.39083327 -62.85428172 43.22893656 -65.3125 38.3125 C-66.03160796 31.20394099 -65.82642888 25.98384654 -61.3125 20.3125 C-54.89055463 16.2443797 -47.91124315 13.14967227 -41.0625 9.875 C-39.89847656 9.31490234 -38.73445313 8.75480469 -37.53515625 8.17773438 C-32.10691247 5.57302837 -26.6682574 2.9913327 -21.203125 0.46484375 C-20.35266602 0.07159912 -19.50220703 -0.32164551 -18.62597656 -0.72680664 C-12.18260189 -3.40247985 -6.24169432 -3.17973107 0 0 Z " fill="#000000" transform="translate(121.3125,192.6875)"/>
</svg>
